<?xml version="1.0" encoding="UTF-8"?>
<svg xmlns="http://www.w3.org/2000/svg" width="1504" height="2488" viewBox="0 0 1504 2488" role="img" aria-labelledby="title desc">
  <title id="title">通用数学知识图谱</title>
  <desc id="desc">按小学、初中、高中分列，按数学领域分组的通用数学知识前置依赖图。</desc>
  <defs>
    <marker id="arrow" viewBox="0 0 10 10" refX="9" refY="5" markerWidth="8" markerHeight="8" orient="auto-start-reverse">
      <path d="M 0 0 L 10 5 L 0 10 z" fill="#64748B"/>
    </marker>
    <style>
      .title { font: 700 30px sans-serif; fill: #0F172A; }
      .subtitle { font: 400 14px sans-serif; fill: #475569; }
      .stage-title { font: 700 22px sans-serif; fill: #0F172A; }
      .domain-title { font: 700 14px sans-serif; fill: #334155; }
      .node-text { font: 600 12px sans-serif; fill: #0F172A; }
      .meta-text { font: 400 11px sans-serif; fill: #475569; }
      .edge { fill: none; stroke: #94A3B8; stroke-width: 1.5; marker-end: url(#arrow); opacity: 0.78; }
      .stage-box { fill: #F8FAFC; stroke: #CBD5E1; stroke-width: 1.5; rx: 20; }
      .domain-box { fill: #FFFFFF; stroke: #E2E8F0; stroke-width: 1; rx: 12; }
      .node-box { stroke: #CBD5E1; stroke-width: 1; rx: 10; }
    </style>
  </defs>
  <rect x="0" y="0" width="1504" height="2488" fill="#F8FAFC"/>
  <text x="48" y="40" class="title">通用数学知识图谱</text>
  <text x="48" y="68" class="subtitle">覆盖小学到高中主干数学知识。节点表示中等粒度知识点，箭头表示主干前置依赖关系。</text>
  <rect x="48" y="88" width="440" height="2352" class="stage-box"/>
  <text x="66" y="118" class="stage-title">小学</text>
  <rect x="532" y="88" width="440" height="2352" class="stage-box"/>
  <text x="550" y="118" class="stage-title">初中</text>
  <rect x="1016" y="88" width="440" height="2352" class="stage-box"/>
  <text x="1034" y="118" class="stage-title">高中</text>
  <rect x="60" y="144" width="416" height="208" class="domain-box"/>
  <text x="72" y="164" class="domain-title">数与运算</text>
  <rect x="544" y="144" width="416" height="208" class="domain-box"/>
  <rect x="1028" y="144" width="416" height="208" class="domain-box"/>
  <rect x="60" y="376" width="416" height="208" class="domain-box"/>
  <text x="72" y="396" class="domain-title">代数</text>
  <rect x="544" y="376" width="416" height="208" class="domain-box"/>
  <rect x="1028" y="376" width="416" height="208" class="domain-box"/>
  <rect x="60" y="608" width="416" height="208" class="domain-box"/>
  <text x="72" y="628" class="domain-title">几何</text>
  <rect x="544" y="608" width="416" height="208" class="domain-box"/>
  <rect x="1028" y="608" width="416" height="208" class="domain-box"/>
  <rect x="60" y="840" width="416" height="208" class="domain-box"/>
  <text x="72" y="860" class="domain-title">函数</text>
  <rect x="544" y="840" width="416" height="208" class="domain-box"/>
  <rect x="1028" y="840" width="416" height="208" class="domain-box"/>
  <rect x="60" y="1072" width="416" height="208" class="domain-box"/>
  <text x="72" y="1092" class="domain-title">解析几何</text>
  <rect x="544" y="1072" width="416" height="208" class="domain-box"/>
  <rect x="1028" y="1072" width="416" height="208" class="domain-box"/>
  <rect x="60" y="1304" width="416" height="208" class="domain-box"/>
  <text x="72" y="1324" class="domain-title">三角</text>
  <rect x="544" y="1304" width="416" height="208" class="domain-box"/>
  <rect x="1028" y="1304" width="416" height="208" class="domain-box"/>
  <rect x="60" y="1536" width="416" height="208" class="domain-box"/>
  <text x="72" y="1556" class="domain-title">向量</text>
  <rect x="544" y="1536" width="416" height="208" class="domain-box"/>
  <rect x="1028" y="1536" width="416" height="208" class="domain-box"/>
  <rect x="60" y="1768" width="416" height="208" class="domain-box"/>
  <text x="72" y="1788" class="domain-title">统计与概率</text>
  <rect x="544" y="1768" width="416" height="208" class="domain-box"/>
  <rect x="1028" y="1768" width="416" height="208" class="domain-box"/>
  <rect x="60" y="2000" width="416" height="208" class="domain-box"/>
  <text x="72" y="2020" class="domain-title">微积分直观</text>
  <rect x="544" y="2000" width="416" height="208" class="domain-box"/>
  <rect x="1028" y="2000" width="416" height="208" class="domain-box"/>
  <rect x="60" y="2232" width="416" height="208" class="domain-box"/>
  <text x="72" y="2252" class="domain-title">集合与逻辑</text>
  <rect x="544" y="2232" width="416" height="208" class="domain-box"/>
  <rect x="1028" y="2232" width="416" height="208" class="domain-box"/>
  <g id="edges">
    <path d="M 594 352 C 510 352, 510 284, 426 284" class="edge"/>
    <path d="M 594 284 C 600 284, 600 216, 606 216" class="edge"/>
    <path d="M 594 284 C 600 284, 600 284, 606 284" class="edge"/>
    <path d="M 774 216 C 690 216, 690 284, 606 284" class="edge"/>
    <path d="M 594 352 C 510 352, 510 216, 426 216" class="edge"/>
    <path d="M 594 284 C 510 284, 510 216, 426 216" class="edge"/>
    <path d="M 774 216 C 510 216, 510 352, 246 352" class="edge"/>
    <path d="M 774 216 C 420 216, 420 284, 66 284" class="edge"/>
    <path d="M 234 284 C 510 284, 510 216, 786 216" class="edge"/>
    <path d="M 414 352 C 600 352, 600 216, 786 216" class="edge"/>
    <path d="M 954 216 C 600 216, 600 284, 246 284" class="edge"/>
    <path d="M 774 284 C 510 284, 510 284, 246 284" class="edge"/>
    <path d="M 234 284 C 510 284, 510 284, 786 284" class="edge"/>
    <path d="M 954 284 C 510 284, 510 352, 66 352" class="edge"/>
    <path d="M 774 284 C 420 284, 420 352, 66 352" class="edge"/>
    <path d="M 414 284 C 330 284, 330 216, 246 216" class="edge"/>
    <path d="M 234 352 C 240 352, 240 216, 246 216" class="edge"/>
    <path d="M 414 216 C 240 216, 240 216, 66 216" class="edge"/>
    <path d="M 234 352 C 150 352, 150 216, 66 216" class="edge"/>
    <path d="M 774 284 C 420 284, 420 516, 66 516" class="edge"/>
    <path d="M 594 284 C 330 284, 330 448, 66 448" class="edge"/>
    <path d="M 774 216 C 420 216, 420 448, 66 448" class="edge"/>
    <path d="M 234 680 C 240 680, 240 748, 246 748" class="edge"/>
    <path d="M 594 284 C 420 284, 420 748, 246 748" class="edge"/>
    <path d="M 234 680 C 150 680, 150 748, 66 748" class="edge"/>
    <path d="M 774 216 C 420 216, 420 748, 66 748" class="edge"/>
    <path d="M 234 748 C 240 748, 240 680, 246 680" class="edge"/>
    <path d="M 774 216 C 510 216, 510 680, 246 680" class="edge"/>
    <path d="M 594 284 C 330 284, 330 1908, 66 1908" class="edge"/>
    <path d="M 774 216 C 420 216, 420 1908, 66 1908" class="edge"/>
    <path d="M 414 216 C 240 216, 240 1840, 66 1840" class="edge"/>
    <path d="M 594 352 C 572 352, 572 352, 550 352" class="edge"/>
    <path d="M 718 352 C 634 352, 634 284, 550 284" class="edge"/>
    <path d="M 234 284 C 392 284, 392 284, 550 284" class="edge"/>
    <path d="M 954 284 C 752 284, 752 284, 550 284" class="edge"/>
    <path d="M 774 216 C 662 216, 662 516, 550 516" class="edge"/>
    <path d="M 718 284 C 634 284, 634 516, 550 516" class="edge"/>
    <path d="M 718 516 C 634 516, 634 216, 550 216" class="edge"/>
    <path d="M 718 284 C 634 284, 634 216, 550 216" class="edge"/>
    <path d="M 234 448 C 572 448, 572 584, 910 584" class="edge"/>
    <path d="M 234 516 C 572 516, 572 584, 910 584" class="edge"/>
    <path d="M 718 284 C 814 284, 814 584, 910 584" class="edge"/>
    <path d="M 1078 584 C 814 584, 814 584, 550 584" class="edge"/>
    <path d="M 234 516 C 392 516, 392 584, 550 584" class="edge"/>
    <path d="M 718 584 C 814 584, 814 516, 910 516" class="edge"/>
    <path d="M 718 584 C 724 584, 724 448, 730 448" class="edge"/>
    <path d="M 1078 584 C 904 584, 904 448, 730 448" class="edge"/>
    <path d="M 1078 584 C 904 584, 904 584, 730 584" class="edge"/>
    <path d="M 718 516 C 724 516, 724 584, 730 584" class="edge"/>
    <path d="M 898 584 C 904 584, 904 448, 910 448" class="edge"/>
    <path d="M 1078 584 C 994 584, 994 448, 910 448" class="edge"/>
    <path d="M 954 216 C 932 216, 932 448, 910 448" class="edge"/>
    <path d="M 718 216 C 634 216, 634 448, 550 448" class="edge"/>
    <path d="M 1078 584 C 814 584, 814 448, 550 448" class="edge"/>
    <path d="M 898 584 C 814 584, 814 516, 730 516" class="edge"/>
    <path d="M 718 584 C 724 584, 724 516, 730 516" class="edge"/>
    <path d="M 718 216 C 724 216, 724 516, 730 516" class="edge"/>
    <path d="M 718 352 C 634 352, 634 1144, 550 1144" class="edge"/>
    <path d="M 234 680 C 392 680, 392 1144, 550 1144" class="edge"/>
    <path d="M 414 216 C 572 216, 572 980, 730 980" class="edge"/>
    <path d="M 718 1144 C 724 1144, 724 980, 730 980" class="edge"/>
    <path d="M 1078 584 C 904 584, 904 980, 730 980" class="edge"/>
    <path d="M 414 216 C 572 216, 572 912, 730 912" class="edge"/>
    <path d="M 1078 584 C 904 584, 904 912, 730 912" class="edge"/>
    <path d="M 898 448 C 724 448, 724 980, 550 980" class="edge"/>
    <path d="M 718 1144 C 634 1144, 634 980, 550 980" class="edge"/>
    <path d="M 898 980 C 724 980, 724 980, 550 980" class="edge"/>
    <path d="M 898 516 C 724 516, 724 912, 550 912" class="edge"/>
    <path d="M 718 1144 C 634 1144, 634 912, 550 912" class="edge"/>
    <path d="M 1078 584 C 814 584, 814 912, 550 912" class="edge"/>
    <path d="M 234 680 C 392 680, 392 680, 550 680" class="edge"/>
    <path d="M 718 680 C 724 680, 724 748, 730 748" class="edge"/>
    <path d="M 898 748 C 724 748, 724 748, 550 748" class="edge"/>
    <path d="M 718 680 C 814 680, 814 748, 910 748" class="edge"/>
    <path d="M 898 748 C 904 748, 904 748, 910 748" class="edge"/>
    <path d="M 234 680 C 572 680, 572 680, 910 680" class="edge"/>
    <path d="M 718 1144 C 814 1144, 814 680, 910 680" class="edge"/>
    <path d="M 898 748 C 724 748, 724 816, 550 816" class="edge"/>
    <path d="M 414 216 C 482 216, 482 816, 550 816" class="edge"/>
    <path d="M 898 748 C 814 748, 814 680, 730 680" class="edge"/>
    <path d="M 234 748 C 482 748, 482 680, 730 680" class="edge"/>
    <path d="M 234 680 C 482 680, 482 816, 730 816" class="edge"/>
    <path d="M 718 680 C 724 680, 724 816, 730 816" class="edge"/>
    <path d="M 898 816 C 904 816, 904 816, 910 816" class="edge"/>
    <path d="M 718 748 C 814 748, 814 816, 910 816" class="edge"/>
    <path d="M 718 816 C 814 816, 814 816, 910 816" class="edge"/>
    <path d="M 234 1908 C 392 1908, 392 1908, 550 1908" class="edge"/>
    <path d="M 718 284 C 634 284, 634 1908, 550 1908" class="edge"/>
    <path d="M 234 1840 C 392 1840, 392 1840, 550 1840" class="edge"/>
    <path d="M 414 216 C 482 216, 482 1840, 550 1840" class="edge"/>
    <path d="M 1078 584 C 1056 584, 1056 2304, 1034 2304" class="edge"/>
    <path d="M 1202 2304 C 1208 2304, 1208 912, 1214 912" class="edge"/>
    <path d="M 718 980 C 966 980, 966 912, 1214 912" class="edge"/>
    <path d="M 718 912 C 966 912, 966 912, 1214 912" class="edge"/>
    <path d="M 1382 912 C 1208 912, 1208 980, 1034 980" class="edge"/>
    <path d="M 1078 680 C 1056 680, 1056 980, 1034 980" class="edge"/>
    <path d="M 718 516 C 876 516, 876 584, 1034 584" class="edge"/>
    <path d="M 1078 584 C 1056 584, 1056 584, 1034 584" class="edge"/>
    <path d="M 1202 584 C 1208 584, 1208 448, 1214 448" class="edge"/>
    <path d="M 1382 912 C 1298 912, 1298 980, 1214 980" class="edge"/>
    <path d="M 1202 584 C 1208 584, 1208 980, 1214 980" class="edge"/>
    <path d="M 1382 912 C 1208 912, 1208 912, 1034 912" class="edge"/>
    <path d="M 1382 448 C 1208 448, 1208 912, 1034 912" class="edge"/>
    <path d="M 718 816 C 876 816, 876 1376, 1034 1376" class="edge"/>
    <path d="M 898 680 C 966 680, 966 1376, 1034 1376" class="edge"/>
    <path d="M 1382 912 C 1298 912, 1298 1376, 1214 1376" class="edge"/>
    <path d="M 1202 1376 C 1208 1376, 1208 1376, 1214 1376" class="edge"/>
    <path d="M 718 1144 C 966 1144, 966 1376, 1214 1376" class="edge"/>
    <path d="M 1382 1376 C 1208 1376, 1208 1444, 1034 1444" class="edge"/>
    <path d="M 1202 980 C 1118 980, 1118 1444, 1034 1444" class="edge"/>
    <path d="M 1202 1376 C 1208 1376, 1208 1444, 1214 1444" class="edge"/>
    <path d="M 898 748 C 1056 748, 1056 1444, 1214 1444" class="edge"/>
    <path d="M 234 448 C 724 448, 724 516, 1214 516" class="edge"/>
    <path d="M 1382 912 C 1298 912, 1298 516, 1214 516" class="edge"/>
    <path d="M 1382 516 C 1208 516, 1208 448, 1034 448" class="edge"/>
    <path d="M 414 216 C 724 216, 724 448, 1034 448" class="edge"/>
    <path d="M 898 516 C 1146 516, 1146 516, 1394 516" class="edge"/>
    <path d="M 1078 516 C 1236 516, 1236 516, 1394 516" class="edge"/>
    <path d="M 898 516 C 966 516, 966 516, 1034 516" class="edge"/>
    <path d="M 1202 2304 C 1118 2304, 1118 2372, 1034 2372" class="edge"/>
    <path d="M 1382 516 C 1208 516, 1208 2372, 1034 2372" class="edge"/>
    <path d="M 774 216 C 904 216, 904 1840, 1034 1840" class="edge"/>
    <path d="M 1202 2304 C 1118 2304, 1118 1840, 1034 1840" class="edge"/>
    <path d="M 1202 1840 C 1118 1840, 1118 1908, 1034 1908" class="edge"/>
    <path d="M 1202 1908 C 1298 1908, 1298 448, 1394 448" class="edge"/>
    <path d="M 1078 584 C 1236 584, 1236 448, 1394 448" class="edge"/>
    <path d="M 718 1840 C 966 1840, 966 1840, 1214 1840" class="edge"/>
    <path d="M 1202 1908 C 1208 1908, 1208 1840, 1214 1840" class="edge"/>
    <path d="M 1382 912 C 1298 912, 1298 1840, 1214 1840" class="edge"/>
    <path d="M 1382 1840 C 1298 1840, 1298 1908, 1214 1908" class="edge"/>
    <path d="M 1382 912 C 1298 912, 1298 1908, 1214 1908" class="edge"/>
    <path d="M 718 1908 C 876 1908, 876 1976, 1034 1976" class="edge"/>
    <path d="M 1382 1840 C 1208 1840, 1208 1976, 1034 1976" class="edge"/>
    <path d="M 718 1144 C 876 1144, 876 1676, 1034 1676" class="edge"/>
    <path d="M 1078 584 C 1056 584, 1056 1676, 1034 1676" class="edge"/>
    <path d="M 1202 1676 C 1118 1676, 1118 1744, 1034 1744" class="edge"/>
    <path d="M 1202 1744 C 1118 1744, 1118 1608, 1034 1608" class="edge"/>
    <path d="M 898 748 C 966 748, 966 1608, 1034 1608" class="edge"/>
    <path d="M 234 680 C 634 680, 634 816, 1034 816" class="edge"/>
    <path d="M 898 748 C 966 748, 966 816, 1034 816" class="edge"/>
    <path d="M 1078 748 C 1056 748, 1056 816, 1034 816" class="edge"/>
    <path d="M 1202 816 C 1118 816, 1118 748, 1034 748" class="edge"/>
    <path d="M 1202 748 C 1118 748, 1118 680, 1034 680" class="edge"/>
    <path d="M 414 680 C 724 680, 724 680, 1034 680" class="edge"/>
    <path d="M 1202 1376 C 1118 1376, 1118 680, 1034 680" class="edge"/>
    <path d="M 1078 516 C 1056 516, 1056 1144, 1034 1144" class="edge"/>
    <path d="M 718 1144 C 876 1144, 876 1144, 1034 1144" class="edge"/>
    <path d="M 1202 1144 C 1208 1144, 1208 1144, 1214 1144" class="edge"/>
    <path d="M 718 980 C 966 980, 966 1144, 1214 1144" class="edge"/>
    <path d="M 1382 912 C 1208 912, 1208 1280, 1034 1280" class="edge"/>
    <path d="M 718 1144 C 876 1144, 876 1280, 1034 1280" class="edge"/>
    <path d="M 1202 1280 C 1118 1280, 1118 1212, 1034 1212" class="edge"/>
    <path d="M 898 816 C 966 816, 966 1212, 1034 1212" class="edge"/>
    <path d="M 1202 1212 C 1208 1212, 1208 1212, 1214 1212" class="edge"/>
    <path d="M 718 912 C 966 912, 966 1212, 1214 1212" class="edge"/>
    <path d="M 1202 980 C 1208 980, 1208 2140, 1214 2140" class="edge"/>
    <path d="M 1382 516 C 1298 516, 1298 2140, 1214 2140" class="edge"/>
    <path d="M 1382 2140 C 1208 2140, 1208 2072, 1034 2072" class="edge"/>
    <path d="M 1382 912 C 1208 912, 1208 2072, 1034 2072" class="edge"/>
    <path d="M 1202 2072 C 1208 2072, 1208 2072, 1214 2072" class="edge"/>
    <path d="M 1202 980 C 1208 980, 1208 2072, 1214 2072" class="edge"/>
    <path d="M 1202 1280 C 1208 1280, 1208 2072, 1214 2072" class="edge"/>
    <path d="M 1202 2072 C 1118 2072, 1118 2140, 1034 2140" class="edge"/>
    <path d="M 234 748 C 634 748, 634 2140, 1034 2140" class="edge"/>
  </g>
  <g id="nodes">
    <g>
      <rect x="426" y="324" width="168" height="56" class="node-box" fill="#FDE68A"/>
      <text x="436" y="346" class="node-text">自然数与数数</text>
    </g>
    <g>
      <rect x="426" y="256" width="168" height="56" class="node-box" fill="#FDE68A"/>
      <text x="436" y="278" class="node-text">加法与减法</text>
    </g>
    <g>
      <rect x="606" y="188" width="168" height="56" class="node-box" fill="#FDE68A"/>
      <text x="616" y="210" class="node-text">乘法与除法</text>
    </g>
    <g>
      <rect x="606" y="256" width="168" height="56" class="node-box" fill="#FDE68A"/>
      <text x="616" y="278" class="node-text">四则运算与运算顺序</text>
    </g>
    <g>
      <rect x="426" y="188" width="168" height="56" class="node-box" fill="#FDE68A"/>
      <text x="436" y="210" class="node-text">常见量与单位换算</text>
    </g>
    <g>
      <rect x="246" y="324" width="168" height="56" class="node-box" fill="#FDE68A"/>
      <text x="256" y="346" class="node-text">因数、倍数与质数</text>
    </g>
    <g>
      <rect x="66" y="256" width="168" height="56" class="node-box" fill="#FDE68A"/>
      <text x="76" y="278" class="node-text">分数概念</text>
    </g>
    <g>
      <rect x="786" y="188" width="168" height="56" class="node-box" fill="#FDE68A"/>
      <text x="796" y="210" class="node-text">分数大小比较与等值分</text>
      <text x="796" y="224" class="node-text">数</text>
    </g>
    <g>
      <rect x="246" y="256" width="168" height="56" class="node-box" fill="#FDE68A"/>
      <text x="256" y="278" class="node-text">分数四则运算</text>
    </g>
    <g>
      <rect x="786" y="256" width="168" height="56" class="node-box" fill="#FDE68A"/>
      <text x="796" y="278" class="node-text">小数概念</text>
    </g>
    <g>
      <rect x="66" y="324" width="168" height="56" class="node-box" fill="#FDE68A"/>
      <text x="76" y="346" class="node-text">小数四则运算</text>
    </g>
    <g>
      <rect x="246" y="188" width="168" height="56" class="node-box" fill="#FDE68A"/>
      <text x="256" y="210" class="node-text">比、比例与按比例分配</text>
    </g>
    <g>
      <rect x="66" y="188" width="168" height="56" class="node-box" fill="#FDE68A"/>
      <text x="76" y="210" class="node-text">百分数</text>
    </g>
    <g>
      <rect x="66" y="488" width="168" height="56" class="node-box" fill="#BFDBFE"/>
      <text x="76" y="510" class="node-text">用逆运算解简单方程</text>
    </g>
    <g>
      <rect x="66" y="420" width="168" height="56" class="node-box" fill="#BFDBFE"/>
      <text x="76" y="442" class="node-text">数与图形的简单规律</text>
    </g>
    <g>
      <rect x="66" y="652" width="168" height="56" class="node-box" fill="#C7D2FE"/>
      <text x="76" y="674" class="node-text">平面图形初步认识</text>
    </g>
    <g>
      <rect x="246" y="720" width="168" height="56" class="node-box" fill="#C7D2FE"/>
      <text x="256" y="742" class="node-text">周长</text>
    </g>
    <g>
      <rect x="66" y="720" width="168" height="56" class="node-box" fill="#C7D2FE"/>
      <text x="76" y="742" class="node-text">长方形、正方形及基础</text>
      <text x="76" y="756" class="node-text">组合图形面积</text>
    </g>
    <g>
      <rect x="246" y="652" width="168" height="56" class="node-box" fill="#C7D2FE"/>
      <text x="256" y="674" class="node-text">长方体与正方体体积</text>
    </g>
    <g>
      <rect x="66" y="1880" width="168" height="56" class="node-box" fill="#DDD6FE"/>
      <text x="76" y="1902" class="node-text">统计表、统计图与平均</text>
      <text x="76" y="1916" class="node-text">数初步</text>
    </g>
    <g>
      <rect x="66" y="1812" width="168" height="56" class="node-box" fill="#DDD6FE"/>
      <text x="76" y="1834" class="node-text">可能性直观认识</text>
    </g>
    <g>
      <rect x="550" y="324" width="168" height="56" class="node-box" fill="#FDE68A"/>
      <text x="560" y="346" class="node-text">正数、负数与数轴</text>
    </g>
    <g>
      <rect x="550" y="256" width="168" height="56" class="node-box" fill="#FDE68A"/>
      <text x="560" y="278" class="node-text">有理数</text>
    </g>
    <g>
      <rect x="550" y="488" width="168" height="56" class="node-box" fill="#BFDBFE"/>
      <text x="560" y="510" class="node-text">幂、算术平方根与科学</text>
      <text x="560" y="524" class="node-text">记数法</text>
    </g>
    <g>
      <rect x="550" y="188" width="168" height="56" class="node-box" fill="#FDE68A"/>
      <text x="560" y="210" class="node-text">实数与平方根</text>
    </g>
    <g>
      <rect x="910" y="556" width="168" height="56" class="node-box" fill="#BFDBFE"/>
      <text x="920" y="578" class="node-text">整式与代数式</text>
    </g>
    <g>
      <rect x="550" y="556" width="168" height="56" class="node-box" fill="#BFDBFE"/>
      <text x="560" y="578" class="node-text">一元一次方程</text>
    </g>
    <g>
      <rect x="910" y="488" width="168" height="56" class="node-box" fill="#BFDBFE"/>
      <text x="920" y="510" class="node-text">一元一次不等式</text>
    </g>
    <g>
      <rect x="730" y="420" width="168" height="56" class="node-box" fill="#BFDBFE"/>
      <text x="740" y="442" class="node-text">二元一次方程组</text>
    </g>
    <g>
      <rect x="730" y="556" width="168" height="56" class="node-box" fill="#BFDBFE"/>
      <text x="740" y="578" class="node-text">因式分解</text>
    </g>
    <g>
      <rect x="910" y="420" width="168" height="56" class="node-box" fill="#BFDBFE"/>
      <text x="920" y="442" class="node-text">分式</text>
    </g>
    <g>
      <rect x="550" y="420" width="168" height="56" class="node-box" fill="#BFDBFE"/>
      <text x="560" y="442" class="node-text">二次根式及其运算</text>
    </g>
    <g>
      <rect x="730" y="488" width="168" height="56" class="node-box" fill="#BFDBFE"/>
      <text x="740" y="510" class="node-text">一元二次方程</text>
    </g>
    <g>
      <rect x="550" y="1116" width="168" height="56" class="node-box" fill="#FBCFE8"/>
      <text x="560" y="1138" class="node-text">平面直角坐标系</text>
    </g>
    <g>
      <rect x="730" y="952" width="168" height="56" class="node-box" fill="#A7F3D0"/>
      <text x="740" y="974" class="node-text">正比例函数</text>
    </g>
    <g>
      <rect x="730" y="884" width="168" height="56" class="node-box" fill="#A7F3D0"/>
      <text x="740" y="906" class="node-text">反比例函数</text>
    </g>
    <g>
      <rect x="550" y="952" width="168" height="56" class="node-box" fill="#A7F3D0"/>
      <text x="560" y="974" class="node-text">一次函数</text>
    </g>
    <g>
      <rect x="550" y="884" width="168" height="56" class="node-box" fill="#A7F3D0"/>
      <text x="560" y="906" class="node-text">二次函数</text>
    </g>
    <g>
      <rect x="550" y="652" width="168" height="56" class="node-box" fill="#C7D2FE"/>
      <text x="560" y="674" class="node-text">点、线、角与平行线</text>
    </g>
    <g>
      <rect x="730" y="720" width="168" height="56" class="node-box" fill="#C7D2FE"/>
      <text x="740" y="742" class="node-text">三角形</text>
    </g>
    <g>
      <rect x="550" y="720" width="168" height="56" class="node-box" fill="#C7D2FE"/>
      <text x="560" y="742" class="node-text">全等三角形</text>
    </g>
    <g>
      <rect x="910" y="720" width="168" height="56" class="node-box" fill="#C7D2FE"/>
      <text x="920" y="742" class="node-text">四边形</text>
    </g>
    <g>
      <rect x="910" y="652" width="168" height="56" class="node-box" fill="#C7D2FE"/>
      <text x="920" y="674" class="node-text">平移、轴对称与旋转</text>
    </g>
    <g>
      <rect x="550" y="788" width="168" height="56" class="node-box" fill="#C7D2FE"/>
      <text x="560" y="810" class="node-text">相似三角形</text>
    </g>
    <g>
      <rect x="730" y="652" width="168" height="56" class="node-box" fill="#C7D2FE"/>
      <text x="740" y="674" class="node-text">勾股定理</text>
    </g>
    <g>
      <rect x="730" y="788" width="168" height="56" class="node-box" fill="#C7D2FE"/>
      <text x="740" y="810" class="node-text">圆的基本概念</text>
    </g>
    <g>
      <rect x="910" y="788" width="168" height="56" class="node-box" fill="#C7D2FE"/>
      <text x="920" y="810" class="node-text">圆的性质与位置关系</text>
    </g>
    <g>
      <rect x="550" y="1880" width="168" height="56" class="node-box" fill="#DDD6FE"/>
      <text x="560" y="1902" class="node-text">数据收集与描述性统计</text>
    </g>
    <g>
      <rect x="550" y="1812" width="168" height="56" class="node-box" fill="#DDD6FE"/>
      <text x="560" y="1834" class="node-text">古典概率初步</text>
    </g>
    <g>
      <rect x="1034" y="2276" width="168" height="56" class="node-box" fill="#D9F99D"/>
      <text x="1044" y="2298" class="node-text">集合与常用逻辑用语</text>
    </g>
    <g>
      <rect x="1214" y="884" width="168" height="56" class="node-box" fill="#A7F3D0"/>
      <text x="1224" y="906" class="node-text">函数概念与表示法</text>
    </g>
    <g>
      <rect x="1034" y="952" width="168" height="56" class="node-box" fill="#A7F3D0"/>
      <text x="1044" y="974" class="node-text">函数性质与图像变换</text>
    </g>
    <g>
      <rect x="1034" y="556" width="168" height="56" class="node-box" fill="#BFDBFE"/>
      <text x="1044" y="578" class="node-text">指数扩展与幂运算法则</text>
    </g>
    <g>
      <rect x="1214" y="420" width="168" height="56" class="node-box" fill="#BFDBFE"/>
      <text x="1224" y="442" class="node-text">对数</text>
    </g>
    <g>
      <rect x="1214" y="952" width="168" height="56" class="node-box" fill="#A7F3D0"/>
      <text x="1224" y="974" class="node-text">指数函数</text>
    </g>
    <g>
      <rect x="1034" y="884" width="168" height="56" class="node-box" fill="#A7F3D0"/>
      <text x="1044" y="906" class="node-text">对数函数</text>
    </g>
    <g>
      <rect x="1034" y="1348" width="168" height="56" class="node-box" fill="#FDBA74"/>
      <text x="1044" y="1370" class="node-text">锐角三角比</text>
    </g>
    <g>
      <rect x="1214" y="1348" width="168" height="56" class="node-box" fill="#FDBA74"/>
      <text x="1224" y="1370" class="node-text">三角函数</text>
    </g>
    <g>
      <rect x="1034" y="1416" width="168" height="56" class="node-box" fill="#FDBA74"/>
      <text x="1044" y="1438" class="node-text">三角恒等变换与图像</text>
    </g>
    <g>
      <rect x="1214" y="1416" width="168" height="56" class="node-box" fill="#FDBA74"/>
      <text x="1224" y="1438" class="node-text">正弦定理与余弦定理</text>
    </g>
    <g>
      <rect x="1214" y="488" width="168" height="56" class="node-box" fill="#BFDBFE"/>
      <text x="1224" y="510" class="node-text">数列概念</text>
    </g>
    <g>
      <rect x="1034" y="420" width="168" height="56" class="node-box" fill="#BFDBFE"/>
      <text x="1044" y="442" class="node-text">等差数列与等比数列</text>
    </g>
    <g>
      <rect x="1394" y="488" width="168" height="56" class="node-box" fill="#BFDBFE"/>
      <text x="1404" y="510" class="node-text">一元二次不等式</text>
    </g>
    <g>
      <rect x="1034" y="488" width="168" height="56" class="node-box" fill="#BFDBFE"/>
      <text x="1044" y="510" class="node-text">复数初步</text>
    </g>
    <g>
      <rect x="1034" y="2344" width="168" height="56" class="node-box" fill="#D9F99D"/>
      <text x="1044" y="2366" class="node-text">数学归纳法</text>
    </g>
    <g>
      <rect x="1034" y="1812" width="168" height="56" class="node-box" fill="#DDD6FE"/>
      <text x="1044" y="1834" class="node-text">分类加法计数原理与分</text>
      <text x="1044" y="1848" class="node-text">步乘法计数原理</text>
    </g>
    <g>
      <rect x="1034" y="1880" width="168" height="56" class="node-box" fill="#DDD6FE"/>
      <text x="1044" y="1902" class="node-text">排列与组合</text>
    </g>
    <g>
      <rect x="1394" y="420" width="168" height="56" class="node-box" fill="#BFDBFE"/>
      <text x="1404" y="442" class="node-text">二项式定理</text>
    </g>
    <g>
      <rect x="1214" y="1812" width="168" height="56" class="node-box" fill="#DDD6FE"/>
      <text x="1224" y="1834" class="node-text">概率模型与事件运算</text>
    </g>
    <g>
      <rect x="1214" y="1880" width="168" height="56" class="node-box" fill="#DDD6FE"/>
      <text x="1224" y="1902" class="node-text">随机变量与分布</text>
    </g>
    <g>
      <rect x="1034" y="1948" width="168" height="56" class="node-box" fill="#DDD6FE"/>
      <text x="1044" y="1970" class="node-text">统计估计与推断初步</text>
    </g>
    <g>
      <rect x="1034" y="1648" width="168" height="56" class="node-box" fill="#93C5FD"/>
      <text x="1044" y="1670" class="node-text">向量概念</text>
    </g>
    <g>
      <rect x="1034" y="1716" width="168" height="56" class="node-box" fill="#93C5FD"/>
      <text x="1044" y="1738" class="node-text">向量运算</text>
    </g>
    <g>
      <rect x="1034" y="1580" width="168" height="56" class="node-box" fill="#93C5FD"/>
      <text x="1044" y="1602" class="node-text">平面向量应用</text>
    </g>
    <g>
      <rect x="1034" y="788" width="168" height="56" class="node-box" fill="#C7D2FE"/>
      <text x="1044" y="810" class="node-text">立体几何初步</text>
    </g>
    <g>
      <rect x="1034" y="720" width="168" height="56" class="node-box" fill="#C7D2FE"/>
      <text x="1044" y="742" class="node-text">空间直线与平面位置关</text>
      <text x="1044" y="756" class="node-text">系</text>
    </g>
    <g>
      <rect x="1034" y="652" width="168" height="56" class="node-box" fill="#C7D2FE"/>
      <text x="1044" y="674" class="node-text">空间角、距离与体积度</text>
      <text x="1044" y="688" class="node-text">量</text>
    </g>
    <g>
      <rect x="1034" y="1116" width="168" height="56" class="node-box" fill="#FBCFE8"/>
      <text x="1044" y="1138" class="node-text">二元一次不等式与平面</text>
      <text x="1044" y="1152" class="node-text">区域</text>
    </g>
    <g>
      <rect x="1214" y="1116" width="168" height="56" class="node-box" fill="#FBCFE8"/>
      <text x="1224" y="1138" class="node-text">线性规划初步</text>
    </g>
    <g>
      <rect x="1034" y="1252" width="168" height="56" class="node-box" fill="#FBCFE8"/>
      <text x="1044" y="1274" class="node-text">直线的解析几何</text>
    </g>
    <g>
      <rect x="1034" y="1184" width="168" height="56" class="node-box" fill="#FBCFE8"/>
      <text x="1044" y="1206" class="node-text">圆的解析几何</text>
    </g>
    <g>
      <rect x="1214" y="1184" width="168" height="56" class="node-box" fill="#FBCFE8"/>
      <text x="1224" y="1206" class="node-text">圆锥曲线</text>
    </g>
    <g>
      <rect x="1214" y="2112" width="168" height="56" class="node-box" fill="#99F6E4"/>
      <text x="1224" y="2134" class="node-text">极限直观与变化率</text>
    </g>
    <g>
      <rect x="1034" y="2044" width="168" height="56" class="node-box" fill="#99F6E4"/>
      <text x="1044" y="2066" class="node-text">导数概念</text>
    </g>
    <g>
      <rect x="1214" y="2044" width="168" height="56" class="node-box" fill="#99F6E4"/>
      <text x="1224" y="2066" class="node-text">导数应用</text>
    </g>
    <g>
      <rect x="1034" y="2112" width="168" height="56" class="node-box" fill="#99F6E4"/>
      <text x="1044" y="2134" class="node-text">积分直观与面积累积</text>
    </g>
  </g>
  <text x="48" y="2472" class="meta-text">共 86 个节点。颜色表示领域，列表示常见首次系统学习阶段。</text>
</svg>
